<svg width="55" height="36" viewBox="0 0 55 36" fill="none" xmlns="http://www.w3.org/2000/svg">
<path d="M51 0H4C1.79086 0 0 1.79086 0 4C0 6.20914 1.79086 8 4 8H51C53.2091 8 55 6.20914 55 4C55 1.79086 53.2091 0 51 0Z" fill="white"/>
<path d="M41 14H4C1.79086 14 0 15.7909 0 18C0 20.2091 1.79086 22 4 22H41C43.2091 22 45 20.2091 45 18C45 15.7909 43.2091 14 41 14Z" fill="white"/>
<path d="M31 28H4C1.79086 28 0 29.7909 0 32C0 34.2091 1.79086 36 4 36H31C33.2091 36 35 34.2091 35 32C35 29.7909 33.2091 28 31 28Z" fill="white"/>
</svg>
